<svg width="55" height="41" viewBox="0 0 55 41" fill="none" xmlns="http://www.w3.org/2000/svg">
<path d="M39.142 0.607093H14.8538H12.2621C12.2621 0.607093 12.2622 20.0865 22.7844 24.595C24.0246 25.1264 24.778 26.1459 24.778 27.239H26.6262H30.1809C30.1809 26.1459 30.9343 25.1265 32.1745 24.595C33.3147 24.1065 34.3312 23.442 35.2376 22.6457C40.5685 17.9628 42.0896 8.71693 42.5235 3.822C42.6967 1.86799 42.6969 0.606934 42.6969 0.606934H39.142V0.607093Z" fill="#FECE00"/>
<path d="M1.71731 7.80901C1.83046 0.381509 12.4347 3.82207 12.4347 3.82207C12.5012 4.5711 12.5932 5.42214 12.7202 6.34291C9.93027 5.56928 3.97104 4.43012 4.80774 9.12071C5.6568 13.881 8.35258 17.1719 11.9415 18.9467C13.9398 19.9349 16.1481 20.0747 17.4236 20.0549C18.0976 21.0124 18.8591 21.889 19.7206 22.6457V22.6458C19.7206 22.6458 15.211 23.293 10.7182 21.2109C6.53458 19.2719 1.60601 15.109 1.71731 7.80901Z" fill="#EEBF00"/>
<path d="M30.1811 30.0261H24.7783V33.7157H30.1811V30.0261Z" fill="#FECE00"/>
<path d="M30.1821 30.0261H24.6891V31.4727H30.1821V30.0261Z" fill="#DDB201"/>
<path d="M38.6591 36.3765H16.3002V40.287H38.6591V36.3765Z" fill="#3E3D43"/>
<path d="M38.6591 38.7808H16.3002V40.2861H38.6591V38.7808Z" fill="#444444"/>
<path d="M34.4489 33.7156H20.511V36.3756H34.4489V33.7156Z" fill="#77767E"/>
<path d="M34.4489 35.0457H20.511V36.3757H34.4489V35.0457Z" fill="#3E3D43"/>
<path d="M30.2706 30.026H24.6883C23.689 30.026 22.8789 29.4021 22.8789 28.6325C22.8789 27.8629 23.689 27.239 24.6883 27.239H30.2706C31.2699 27.239 32.08 27.8629 32.08 28.6325C32.08 29.4021 31.2699 30.026 30.2706 30.026Z" fill="#CBA400"/>
<path d="M39.142 0.607178C39.142 0.607178 39.1419 1.86823 38.9685 3.82224C38.5346 8.71717 37.0136 17.963 31.6826 22.6459C30.7761 23.4422 29.7598 24.1067 28.6196 24.5953C27.3793 25.1266 26.626 26.1461 26.626 27.2392H30.1808C30.1808 26.1461 30.9341 25.1267 32.1744 24.5953C33.3146 24.1067 34.331 23.4422 35.2374 22.6459C40.5683 17.963 42.0894 8.71717 42.5233 3.82224C42.6966 1.86823 42.6968 0.607178 42.6968 0.607178H39.142Z" fill="#DDB201"/>
<path d="M25.3761 24.5951C14.8539 20.0866 14.8538 0.607178 14.8538 0.607178H12.2621C12.2621 0.607178 12.2622 20.0866 22.7844 24.5951C24.0247 25.1265 24.778 26.146 24.778 27.239H26.6262C26.6262 26.7856 26.7576 26.3454 26.9979 25.9468C26.659 25.3847 26.1017 24.9061 25.3761 24.5951Z" fill="#FEDA44"/>
<path d="M53.2407 7.80901C53.1276 0.381509 42.5233 3.82207 42.5233 3.82207C42.4569 4.5711 42.3649 5.42214 42.2378 6.34291C45.0278 5.5692 50.987 4.43004 50.1503 9.12063C49.3012 13.8809 46.6054 17.1718 43.0165 18.9466C41.0183 19.9348 38.81 20.0746 37.5344 20.0548C36.8604 21.0124 36.0989 21.8889 35.2374 22.6456V22.6457C35.2374 22.6457 39.7471 23.2929 44.2398 21.2108C48.4235 19.2719 53.352 15.1089 53.2407 7.80901Z" fill="#EEBF00"/>
<path d="M10.6103 5.86076C11.3928 5.99863 12.1279 6.179 12.7202 6.34323C12.5931 5.42246 12.5011 4.57135 12.4346 3.8224C12.4346 3.8224 11.3917 3.48459 9.9574 3.24927C10.2155 4.1142 10.46 4.98161 10.6103 5.86076Z" fill="#CBA400"/>
<path d="M17.4237 20.0553C16.7799 20.0653 15.8982 20.0342 14.926 19.8743C15.0211 20.0759 15.1171 20.2777 15.2177 20.4786C15.6799 21.24 16.2456 21.9776 16.8213 22.7041C18.5558 22.8129 19.7206 22.6462 19.7206 22.6462V22.6461C18.8592 21.8893 18.0977 21.0128 17.4237 20.0553Z" fill="#CBA400"/>
<path d="M44.3478 5.86076C43.5653 5.99863 42.8302 6.179 42.2379 6.34323C42.365 5.42246 42.457 4.57135 42.5235 3.8224C42.5235 3.8224 43.5664 3.48459 45.0007 3.24927C44.7426 4.1142 44.4982 4.98161 44.3478 5.86076Z" fill="#CBA400"/>
<path d="M37.5347 20.0553C38.1785 20.0653 39.0602 20.0342 40.0324 19.8743C39.9372 20.0759 39.8413 20.2777 39.7407 20.4786C39.2785 21.24 38.7128 21.9776 38.1371 22.7041C36.4026 22.8129 35.2378 22.6462 35.2378 22.6462V22.6461C36.0991 21.8893 36.8606 21.0128 37.5347 20.0553Z" fill="#CBA400"/>
<path d="M30.9694 34.3232H23.9893V29.4189H30.9694V34.3232ZM25.5665 33.1085H29.3922V30.6337H25.5665V33.1085Z" fill="black"/>
<path d="M30.2707 30.6334H24.6883C23.2557 30.6334 22.0902 29.7358 22.0902 28.6325C22.0902 27.5292 23.2557 26.6316 24.6883 26.6316H30.2707C31.7033 26.6316 32.8688 27.5292 32.8688 28.6325C32.8688 29.7358 31.7033 30.6334 30.2707 30.6334ZM24.6883 27.8464C24.1254 27.8464 23.6675 28.1991 23.6675 28.6326C23.6675 29.0661 24.1254 29.4187 24.6883 29.4187H30.2707C30.8336 29.4187 31.2915 29.0661 31.2915 28.6326C31.2915 28.1991 30.8336 27.8464 30.2707 27.8464H24.6883Z" fill="black"/>
<path d="M35.2366 36.9829H19.722V33.1082H35.2366V36.9829ZM21.2993 35.7682H33.6593V34.3229H21.2993V35.7682Z" fill="black"/>
<path d="M39.4476 40.8939H15.511V35.7683H39.4476V40.8939ZM17.0883 39.6792H37.8704V36.983H17.0883V39.6792Z" fill="black"/>
<path d="M30.9694 27.8466H23.9893V27.2393C23.9893 26.3557 23.3805 25.546 22.4009 25.1261C19.8521 24.0339 17.6937 22.0402 15.9856 19.2004C14.649 16.9781 13.5778 14.2264 12.8021 11.022C11.4885 5.59619 11.4733 0.656609 11.4733 0.607323V0H43.4855L43.4854 0.607403C43.4854 0.659724 43.4832 1.91151 43.3101 3.86377C42.8573 8.97181 41.2834 18.2564 35.8304 23.0464C34.8316 23.9239 33.7305 24.6237 32.5579 25.1261C31.5781 25.5461 30.9695 26.3557 30.9695 27.2393L30.9694 27.8466ZM25.5014 26.6319H29.4575C29.6914 25.5513 30.5412 24.6001 31.7911 24.0646C32.8052 23.6301 33.7652 23.018 34.6445 22.2455C39.7918 17.724 41.2974 8.73617 41.7366 3.78093C41.8358 2.66014 41.8778 1.76486 41.8954 1.21465H13.0646C13.1777 4.51135 14.1896 20.2176 23.1677 24.0645C24.4175 24.6002 25.2676 25.5513 25.5014 26.6319Z" fill="black"/>
<path d="M36.9711 23.3484C36.9708 23.3484 36.9709 23.3484 36.9707 23.3484C35.8407 23.3483 35.1231 23.2473 35.0932 23.2429L33.7313 23.0477L34.6446 22.2455C35.4289 21.5565 36.1679 20.7221 36.8414 19.7656L37.0704 19.4403L37.5506 19.4478C37.6162 19.4488 37.6843 19.4493 37.7548 19.4493C39.0259 19.4493 40.8966 19.2735 42.5906 18.4357C46.1991 16.6512 48.6064 13.3138 49.3691 9.03815C49.5523 8.01162 49.3904 7.26627 48.8881 6.82278C48.4512 6.4368 47.7022 6.2411 46.662 6.2411C45.2334 6.2411 43.6129 6.60727 42.5052 6.91456L41.3208 7.24303L41.4538 6.27904C41.5679 5.45181 41.663 4.61132 41.7367 3.78097L41.7697 3.40786L42.2173 3.26264C42.3235 3.22813 44.8473 2.41919 47.5346 2.41919C51.6699 2.41919 53.9765 4.33086 54.0294 7.8021C54.0815 11.2169 53.0703 14.2567 51.024 16.837C49.0149 19.3704 46.447 20.897 44.6466 21.7313C41.7629 23.0677 38.8809 23.3484 36.9711 23.3484ZM36.7748 22.1325C36.8383 22.1333 36.9037 22.1337 36.9707 22.1337C36.9708 22.1337 36.971 22.1337 36.9711 22.1337C38.6812 22.1337 41.2596 21.8832 43.8332 20.6906C46.4651 19.4707 52.5735 15.7745 52.4524 7.81632C52.4093 5.00193 50.8007 3.63384 47.5346 3.63384C45.7881 3.63384 44.063 4.0393 43.2741 4.25322C43.2349 4.66021 43.1907 5.06879 43.1419 5.47625C44.2138 5.23374 45.4769 5.02621 46.6619 5.02621C48.1781 5.02621 49.3271 5.36195 50.0769 6.02423C50.8919 6.74418 51.1795 7.81376 50.9317 9.20327C50.507 11.5838 49.6196 13.6878 48.294 15.4568C47.0285 17.1456 45.3963 18.4917 43.4428 19.4576C41.5348 20.4012 39.4711 20.6392 37.999 20.662C37.61 21.1888 37.2012 21.68 36.7748 22.1325Z" fill="black"/>
<path d="M17.9874 23.3483C16.0773 23.3483 13.1952 23.0677 10.3115 21.7312C8.51099 20.8968 5.94309 19.3703 3.93403 16.8369C1.88774 14.2564 0.876577 11.2167 0.928541 7.80186C0.981438 4.3307 3.28796 2.41895 7.42338 2.41895C10.1108 2.41895 12.6346 3.22788 12.7407 3.26239L13.1881 3.40761L13.2212 3.78065C13.2952 4.61331 13.3903 5.45372 13.5042 6.27872L13.6371 7.24278L12.4528 6.91432C11.345 6.6071 9.72451 6.24093 8.29598 6.24093C7.25577 6.24093 6.5067 6.43656 6.06983 6.82254C5.56752 7.26619 5.40572 8.01146 5.58878 9.03791C6.35143 13.3135 8.75877 16.6511 12.3673 18.4355C14.0614 19.2733 15.932 19.4491 17.203 19.4491C17.2737 19.4491 17.3418 19.4485 17.4074 19.4476L17.8876 19.44L18.1165 19.7653C18.7899 20.722 19.5291 21.5564 20.3132 22.2452L20.5089 22.417V22.6455C20.5089 22.8036 20.4315 23.1802 19.7146 23.2613C19.5989 23.2744 19.4714 23.2866 19.3358 23.2973C18.912 23.3312 18.4582 23.3483 17.9874 23.3483ZM7.42338 3.63367C4.15724 3.63367 2.54865 5.00177 2.50571 7.816C2.38435 15.7741 8.49284 19.4705 11.1247 20.6902C13.6983 21.883 16.2771 22.1333 17.9873 22.1333C18.0543 22.1333 18.1195 22.1329 18.1831 22.1321C17.7568 21.6797 17.3477 21.1884 16.9591 20.6619C15.487 20.6391 13.4232 20.4012 11.5152 19.4575C9.56167 18.4915 7.92953 17.1453 6.66405 15.4567C5.3384 13.6877 4.45097 11.5837 4.02634 9.20318C3.77845 7.8136 4.06607 6.74401 4.8812 6.02414C5.63089 5.36186 6.7799 5.02621 8.29618 5.02621C9.48108 5.02621 10.7441 5.23365 11.816 5.47625C11.7674 5.06934 11.7232 4.66068 11.6839 4.25314C10.8954 4.03922 9.17013 3.63367 7.42338 3.63367Z" fill="black"/>
<path d="M42.6295 2.04272H12.2623V3.25745H42.6295V2.04272Z" fill="black"/>
<path d="M20.9974 21.7554C20.4939 21.339 20.0106 20.8614 19.5608 20.3355L20.8779 19.6672C21.2794 20.1367 21.7079 20.5606 22.1516 20.9275L20.9974 21.7554Z" fill="white"/>
<path d="M18.9555 19.5729C17.7206 17.8989 16.7111 15.7554 15.9546 13.202L17.4923 12.9319C18.2145 15.3696 19.1681 17.4019 20.3269 18.9728L18.9555 19.5729Z" fill="white"/>
<path d="M45.6118 27.6641L45.6089 24.3982L44.0316 24.399L44.0345 27.665L45.6118 27.6641Z" fill="black"/>
<path d="M46.9448 26.6378L46.9437 25.4231L42.703 25.4252L42.7041 26.6399L46.9448 26.6378Z" fill="black"/>
<path d="M11.4978 30.8423H9.92053V33.7779H11.4978V30.8423Z" fill="black"/>
<path d="M12.6153 31.7029H8.80359V32.9176H12.6153V31.7029Z" fill="black"/>
<path d="M7.48078 23.0159H5.99292V24.2306H7.48078V23.0159Z" fill="black"/>
<path d="M17.0433 26.6096H15.5554V27.8243H17.0433V26.6096Z" fill="black"/>
<path d="M41.0244 30.2642H39.5365V31.4789H41.0244V30.2642Z" fill="black"/>
</svg>
